# xmcd
# 
# Track frame offsets:
#     150
#     18175
#     29610
#     35429
#     48255
#     60353
#     66053
#     81749
#     98386
#     113597
#     116779
#     127742
#     141786
#     160373
#     178694
#     193046
#     209563
# 
# Disc length: 4440
# 
# Revision: 3
# Processed by: cddbd v1.5.2PL0 Copyright (c) Steve Scherf et al.
# Submitted via: fre:ac v1.0.17
# 
DISCID=e6115611
DTITLE=John Lennon - Acoustic
DYEAR=2004
DGENRE=Rock
TTITLE0=Working Class Hero
TTITLE1=Love
TTITLE2=Well Well Well
TTITLE3=Look At Me
TTITLE4=God
TTITLE5=My Mummy's Dead
TTITLE6=Cold Turkey
TTITLE7=Luck Of The Irish
TTITLE8=John Sinclair
TTITLE9=Woman Is The Nigger Of The World
TTITLE10=What You Got
TTITLE11=Watching The Wheels
TTITLE12=Dear Yoko
TTITLE13=Real Love
TTITLE14=Imagine
TTITLE15=It's Real
TTITLE16=DATA
EXTD=
EXTT0=
EXTT1=
EXTT2=
EXTT3=
EXTT4=
EXTT5=
EXTT6=
EXTT7=
EXTT8=
EXTT9=
EXTT10=
EXTT11=
EXTT12=
EXTT13=
EXTT14=
EXTT15=
EXTT16=
PLAYORDER=
